<mxfile host="app.diagrams.net" modified="2022-11-27T09:32:54.840Z" agent="5.0 (Macintosh; Intel Mac OS X 10_14_6) AppleWebKit/537.36 (KHTML, like Gecko) Chrome/107.0.0.0 Safari/537.36" version="20.6.0" etag="qWaWN5g0ukwFOLYNEkYe" type="github">
  <diagram id="rv5y26RbqhxrC3FIs20f" name="第 1 页">
    <mxGraphModel dx="946" dy="534" grid="1" gridSize="10" guides="1" tooltips="1" connect="1" arrows="1" fold="1" page="1" pageScale="1" pageWidth="827" pageHeight="1169" math="0" shadow="0">
      <root>
        <mxCell id="0" />
        <mxCell id="1" parent="0" />
        <mxCell id="3oT6ZC1aE_hSxIDWVXao-1" value="" style="rounded=1;whiteSpace=wrap;html=1;strokeWidth=2;fillWeight=4;hachureGap=8;hachureAngle=45;fillColor=#f5f5f5;sketch=0;strokeColor=#666666;fontColor=#333333;fontSize=15;" vertex="1" parent="1">
          <mxGeometry x="79" y="320" width="601" height="160" as="geometry" />
        </mxCell>
        <mxCell id="3oT6ZC1aE_hSxIDWVXao-2" value="client" style="rounded=1;whiteSpace=wrap;html=1;strokeWidth=2;fillWeight=4;hachureGap=8;hachureAngle=45;fillColor=#d5e8d4;sketch=0;strokeColor=#82b366;fontSize=20;fontStyle=1" vertex="1" parent="1">
          <mxGeometry x="320" y="120" width="120" height="80" as="geometry" />
        </mxCell>
        <mxCell id="3oT6ZC1aE_hSxIDWVXao-3" style="edgeStyle=orthogonalEdgeStyle;rounded=0;orthogonalLoop=1;jettySize=auto;html=1;fontSize=15;" edge="1" parent="1" source="3oT6ZC1aE_hSxIDWVXao-4" target="3oT6ZC1aE_hSxIDWVXao-5">
          <mxGeometry relative="1" as="geometry" />
        </mxCell>
        <mxCell id="3oT6ZC1aE_hSxIDWVXao-4" value="leader" style="rounded=1;whiteSpace=wrap;html=1;strokeWidth=2;fillWeight=4;hachureGap=8;hachureAngle=45;fillColor=#f8cecc;sketch=0;strokeColor=#b85450;fontSize=20;fontStyle=1" vertex="1" parent="1">
          <mxGeometry x="120" y="360" width="120" height="80" as="geometry" />
        </mxCell>
        <mxCell id="3oT6ZC1aE_hSxIDWVXao-5" value="follower" style="rounded=1;whiteSpace=wrap;html=1;strokeWidth=2;fillWeight=4;hachureGap=8;hachureAngle=45;fillColor=#dae8fc;sketch=0;strokeColor=#6c8ebf;fontSize=20;fontStyle=1" vertex="1" parent="1">
          <mxGeometry x="520" y="360" width="120" height="80" as="geometry" />
        </mxCell>
        <mxCell id="3oT6ZC1aE_hSxIDWVXao-6" value="" style="endArrow=classic;html=1;rounded=0;entryX=0.5;entryY=0;entryDx=0;entryDy=0;exitX=0;exitY=1;exitDx=0;exitDy=0;fontSize=15;" edge="1" parent="1" source="3oT6ZC1aE_hSxIDWVXao-2" target="3oT6ZC1aE_hSxIDWVXao-4">
          <mxGeometry width="50" height="50" relative="1" as="geometry">
            <mxPoint x="310" y="210" as="sourcePoint" />
            <mxPoint x="150" y="110" as="targetPoint" />
          </mxGeometry>
        </mxCell>
        <mxCell id="3oT6ZC1aE_hSxIDWVXao-7" value="" style="endArrow=classic;html=1;rounded=0;exitX=0.5;exitY=0;exitDx=0;exitDy=0;entryX=1;entryY=1;entryDx=0;entryDy=0;fontSize=15;" edge="1" parent="1" source="3oT6ZC1aE_hSxIDWVXao-5" target="3oT6ZC1aE_hSxIDWVXao-2">
          <mxGeometry width="50" height="50" relative="1" as="geometry">
            <mxPoint x="400" y="230" as="sourcePoint" />
            <mxPoint x="450" y="180" as="targetPoint" />
          </mxGeometry>
        </mxCell>
        <mxCell id="3oT6ZC1aE_hSxIDWVXao-8" value="1.写 x=3" style="text;strokeColor=none;fillColor=none;html=1;fontSize=15;fontStyle=1;verticalAlign=middle;align=center;sketch=0;" vertex="1" parent="1">
          <mxGeometry x="160" y="240" width="100" height="40" as="geometry" />
        </mxCell>
        <mxCell id="3oT6ZC1aE_hSxIDWVXao-9" value="2.3.读 x=2 （可能读到x的旧数据）" style="text;strokeColor=none;fillColor=none;html=1;fontSize=15;fontStyle=1;verticalAlign=middle;align=center;sketch=0;" vertex="1" parent="1">
          <mxGeometry x="570" y="260" width="100" as="geometry" />
        </mxCell>
        <mxCell id="3oT6ZC1aE_hSxIDWVXao-11" value="2.1同步" style="text;strokeColor=none;fillColor=none;html=1;fontSize=15;fontStyle=1;verticalAlign=middle;align=center;sketch=0;" vertex="1" parent="1">
          <mxGeometry x="329.5" y="360" width="100" height="40" as="geometry" />
        </mxCell>
      </root>
    </mxGraphModel>
  </diagram>
</mxfile>
